HIERARCHY
ROOT Hips
{
	OFFSET -0.001795 -0.223333 0.028219
	CHANNELS 6 Xposition Yposition Zposition Zrotation Yrotation Xrotation 
	JOINT LeftUpLeg
	{
		OFFSET 0.069520 -0.091406 -0.006815
		CHANNELS 3 Zrotation Yrotation Xrotation
		JOINT LeftLeg
		{
			OFFSET 0.034277 -0.375199 -0.004496
			CHANNELS 3 Zrotation Yrotation Xrotation
			JOINT LeftFoot
			{
				OFFSET -0.013596 -0.397961 -0.043693
				CHANNELS 3 Zrotation Yrotation Xrotation
				JOINT LeftToe
				{
					OFFSET 0.026358 -0.055791 0.119288
					CHANNELS 3 Zrotation Yrotation Xrotation
					End Site
					{
						OFFSET 0.000000 0.000000 0.000000
					}
				}
			}
		}
	}
	JOINT RightUpLeg
	{
		OFFSET -0.067670 -0.090522 -0.004320
		CHANNELS 3 Zrotation Yrotation Xrotation
		JOINT RightLeg
		{
			OFFSET -0.038290 -0.382569 -0.008850
			CHANNELS 3 Zrotation Yrotation Xrotation
			JOINT RightFoot
			{
				OFFSET 0.015774 -0.398415 -0.042312
				CHANNELS 3 Zrotation Yrotation Xrotation
				JOINT RightToe
				{
					OFFSET -0.025372 -0.048144 0.123348
					CHANNELS 3 Zrotation Yrotation Xrotation
					End Site
					{
						OFFSET 0.000000 0.000000 0.000000
					}
				}
			}
		}
	}
	JOINT Spine
	{
		OFFSET -0.002533 0.108963 -0.026696
		CHANNELS 3 Zrotation Yrotation Xrotation
		JOINT Spine1
		{
			OFFSET 0.005487 0.135180 0.001092
			CHANNELS 3 Zrotation Yrotation Xrotation
			JOINT Spine2
			{
				OFFSET 0.001457 0.052922 0.025425
				CHANNELS 3 Zrotation Yrotation Xrotation
				JOINT Neck
				{
					OFFSET -0.002778 0.213870 -0.042857
					CHANNELS 3 Zrotation Yrotation Xrotation
					JOINT Head
					{
						OFFSET 0.005152 0.064970 0.051349
						CHANNELS 3 Zrotation Yrotation Xrotation
						End Site
						{
							OFFSET 0.000000 0.000000 0.000000
						}
					}
				}
				JOINT LeftShoulder
				{
					OFFSET 0.078845 0.121749 -0.034090
					CHANNELS 3 Zrotation Yrotation Xrotation
					JOINT LeftArm
					{
						OFFSET 0.090977 0.030469 -0.008868
						CHANNELS 3 Zrotation Yrotation Xrotation
						JOINT LeftForeArm
						{
							OFFSET 0.259612 -0.012772 -0.027456
							CHANNELS 3 Zrotation Yrotation Xrotation
							JOINT LeftHand
							{
								OFFSET 0.249234 0.008986 -0.001171
								CHANNELS 3 Zrotation Yrotation Xrotation
								End Site
								{
									OFFSET 0.000000 0.000000 0.000000
								}
							}
						}
					}
				}
				JOINT RightShoulder
				{
					OFFSET -0.081759 0.118833 -0.038615
					CHANNELS 3 Zrotation Yrotation Xrotation
					JOINT RightArm
					{
						OFFSET -0.096012 0.032551 -0.009143
						CHANNELS 3 Zrotation Yrotation Xrotation
						JOINT RightForeArm
						{
							OFFSET -0.253742 -0.013329 -0.021401
							CHANNELS 3 Zrotation Yrotation Xrotation
							JOINT RightHand
							{
								OFFSET -0.255298 0.007772 -0.005559
								CHANNELS 3 Zrotation Yrotation Xrotation
								End Site
								{
									OFFSET 0.000000 0.000000 0.000000
								}
							}
						}
					}
				}
			}
		}
	}
}
MOTION
Frames: 13
Frame Time: 0.050000
0.000000 0.931921 0.000000 2.672537 -2.776846 -3.410655 -0.878413 -1.646611 -16.967946 -1.358711 0.001062 8.535445 -1.865147 3.731989 19.801416 0.000000 0.000000 0.000000 1.308411 -1.589955 15.036492 -3.509533 1.651625 16.506369 2.402086 3.122571 4.562416 0.000000 0.000000 0.000000 1.937202 -0.644836 12.115197 -6.098337 2.010619 -26.528502 3.255282 14.205957 31.258836 9.914404 -1.669324 -29.276877 0.000000 0.000000 0.000000 -22.810883 -4.907696 -2.342782 -48.734087 -1.267788 -6.852734 -9.052294 -21.986004 2.339962 0.000000 0.000000 0.000000 25.444697 -3.558889 0.448769 54.922150 19.073688 -0.372082 6.963015 34.841087 5.086553 0.000000 0.000000 0.000000 
0.007045 0.935547 0.051925 3.241257 -2.748592 -2.961476 -3.005243 -1.841114 -15.857526 -0.081445 -0.331555 11.759262 -1.147657 3.708971 16.217013 0.000000 0.000000 0.000000 -1.369609 -0.844171 10.785763 -0.297768 1.578657 28.576840 3.441481 2.366378 9.901610 0.000000 0.000000 0.000000 1.329529 -0.484655 9.987651 -6.942741 2.197403 -26.730111 2.945018 12.237312 32.962996 9.336119 -1.591472 -30.191691 0.000000 0.000000 0.000000 -22.288140 -1.887404 -3.224882 -49.053342 -3.977258 -6.299311 -8.442047 -20.993532 2.233473 0.000000 0.000000 0.000000 25.855960 -4.716126 -0.814253 57.062158 16.995777 -1.328827 9.569535 33.762710 5.682218 0.000000 0.000000 0.000000 
0.012359 0.940416 0.099701 4.036396 -5.203787 -4.040598 -3.724845 -1.530080 -12.433812 -1.095368 -0.058609 13.407483 0.391033 5.217158 14.348076 0.000000 0.000000 0.000000 -3.938750 -0.123069 4.065585 2.588890 1.680843 42.858253 3.396002 -2.799698 20.611110 0.000000 0.000000 0.000000 0.954334 -0.451970 10.643249 -7.187405 2.255091 -26.074235 2.155834 13.596959 32.529046 9.403227 -1.698452 -29.799717 0.000000 0.000000 0.000000 -19.901176 -3.117472 -1.992335 -50.950592 -4.832980 -6.352029 -8.513277 -21.653504 2.332518 0.000000 0.000000 0.000000 25.716793 -5.642440 -1.489763 58.436304 14.723292 -2.318316 10.640569 32.870812 5.871106 0.000000 0.000000 0.000000 
0.015687 0.944083 0.142496 3.978952 -6.144112 -4.770387 -3.969832 -0.979607 -7.533458 -1.461902 0.063029 11.244512 0.930603 5.532912 12.556320 0.000000 0.000000 0.000000 -4.546288 0.250804 -2.193001 4.878120 1.343187 52.863710 0.013516 -9.135215 24.512083 0.000000 0.000000 0.000000 1.638582 -0.531973 11.404000 -7.244713 2.298044 -24.906749 0.305039 11.528822 31.809964 9.679252 -2.263217 -30.329141 0.000000 0.000000 0.000000 -20.956032 -3.339039 -1.221198 -48.819270 -6.400584 -5.602291 -8.638660 -23.052224 2.624372 0.000000 0.000000 0.000000 26.660210 -5.320807 -2.220102 58.002738 13.108309 -3.029302 10.236585 32.158589 5.355259 0.000000 0.000000 0.000000 
0.016635 0.950278 0.181995 3.694427 -6.859086 -5.451156 -4.200725 -0.388287 -2.662498 -1.119822 0.017032 8.634408 1.034563 5.596868 12.411752 0.000000 0.000000 0.000000 -5.040016 0.574963 -7.795574 7.642199 0.023157 56.522570 -4.643168 -14.765424 16.438960 0.000000 0.000000 0.000000 1.597163 -0.575698 12.984517 -6.353835 2.046754 -26.176222 -1.085492 9.120448 32.956450 9.894203 -2.864436 -31.028980 0.000000 0.000000 0.000000 -22.161298 -3.898973 -0.048405 -46.945369 -8.702216 -4.925802 -8.648461 -24.127584 2.900782 0.000000 0.000000 0.000000 27.414892 -5.406632 -3.282001 57.780993 11.732182 -3.723674 9.743762 30.692371 4.737911 0.000000 0.000000 0.000000 
0.015849 0.954216 0.219542 2.833497 -8.127435 -6.036145 -3.534159 0.282784 2.457959 -1.031886 0.045222 5.348897 1.331259 5.944185 12.271372 0.000000 0.000000 0.000000 -4.440663 0.996660 -13.126662 9.256301 -0.730334 53.566114 -7.455847 -18.778584 6.879087 0.000000 0.000000 0.000000 3.115577 -0.756849 13.895445 -6.435368 2.043274 -26.522819 -2.164872 6.883274 33.318482 9.377981 -3.305067 -29.895259 0.000000 0.000000 0.000000 -21.093848 -4.600773 1.364271 -46.132353 -10.899135 -4.376732 -8.235942 -26.753260 3.282697 0.000000 0.000000 0.000000 28.241969 -5.428991 -4.503511 57.232597 9.627703 -4.534797 9.248227 29.475392 4.149592 0.000000 0.000000 0.000000 
0.012843 0.955673 0.255635 2.128145 -9.389379 -6.272918 -2.791393 0.842819 6.757793 -1.198763 0.114013 2.682971 1.630200 6.336218 12.240247 0.000000 0.000000 0.000000 -4.291807 1.451230 -17.905172 9.887016 -1.002883 45.965869 -8.590795 -21.110562 7.720688 0.000000 0.000000 0.000000 3.811503 -0.853481 14.773989 -6.256362 1.986847 -26.675035 -2.661179 4.403617 33.610703 9.595749 -4.022391 -29.987922 0.000000 0.000000 0.000000 -20.419838 -4.529398 2.286934 -46.083497 -13.673103 -3.648321 -7.811994 -28.701360 3.635202 0.000000 0.000000 0.000000 27.815078 -5.896631 -5.997180 57.120382 6.557581 -5.707292 9.857352 28.613250 3.909282 0.000000 0.000000 0.000000 
0.007346 0.952924 0.291016 1.691131 -10.566434 -6.088850 -2.313709 1.342579 10.429912 -1.253155 0.163568 0.255152 2.019024 6.798801 11.625729 0.000000 0.000000 0.000000 -4.049406 1.775637 -20.441952 8.467686 -0.571568 33.312943 -9.304399 -22.617051 9.441472 0.000000 0.000000 0.000000 3.789820 -0.869182 15.636488 -4.756418 1.620207 -27.293187 -3.747531 3.507766 33.688947 9.682521 -4.268694 -30.436418 0.000000 0.000000 0.000000 -18.929576 -5.368096 3.138877 -45.809695 -15.851298 -2.869743 -6.894038 -30.824292 3.768026 0.000000 0.000000 0.000000 26.599591 -6.756305 -6.961320 58.478748 4.178674 -6.817054 9.453321 27.343314 3.503483 0.000000 0.000000 0.000000 
-0.001263 0.947722 0.326747 1.033010 -11.249441 -5.301311 -1.663169 1.670685 12.987464 -0.907351 0.148486 -1.175900 2.365157 7.183943 10.540840 0.000000 0.000000 0.000000 -3.037590 2.023750 -21.077233 5.647557 -0.169406 18.772406 -7.606947 -19.732340 9.553373 0.000000 0.000000 0.000000 4.047207 -0.895795 15.535996 -4.881888 1.631294 -27.032257 -3.936061 1.961859 33.021596 10.929840 -5.088480 -31.283615 0.000000 0.000000 0.000000 -17.147778 -6.716032 4.155949 -45.746378 -17.833830 -2.049614 -4.807053 -32.736449 3.519877 0.000000 0.000000 0.000000 26.266904 -7.721317 -8.267234 57.973553 1.526398 -7.770384 10.223811 25.387420 3.210707 0.000000 0.000000 0.000000 
-0.013206 0.940918 0.364580 1.071931 -12.208546 -4.492178 -1.988349 2.017980 14.826018 -0.062462 0.048124 -1.326503 2.960285 8.064580 9.786795 0.000000 0.000000 0.000000 -2.746582 2.025371 -20.428789 4.105718 -0.248305 5.310468 -5.656891 -17.641472 16.558996 0.000000 0.000000 0.000000 4.101489 -0.885420 15.332056 -4.773333 1.591408 -27.458333 -4.470474 0.600616 32.927639 11.365236 -5.609584 -31.396660 0.000000 0.000000 0.000000 -15.824229 -6.397212 4.284344 -45.398702 -19.447576 -1.416375 -4.857243 -34.101577 3.843505 0.000000 0.000000 0.000000 25.829789 -8.228672 -9.257347 58.875658 -0.605048 -8.750328 9.411310 23.262577 2.622470 0.000000 0.000000 0.000000 
-0.028671 0.933891 0.405602 1.184854 -12.971914 -3.818668 -1.784300 2.314522 16.629076 -0.096160 0.024826 -0.391324 3.409572 8.753351 8.925474 0.000000 0.000000 0.000000 -2.038963 2.175860 -20.638854 3.447234 -0.253710 0.645991 -5.721473 -19.050904 25.996119 0.000000 0.000000 0.000000 4.395070 -0.870904 14.322089 -4.501327 1.513672 -27.542800 -5.520156 -0.026692 33.258541 12.505100 -6.451411 -31.341441 0.000000 0.000000 0.000000 -15.625247 -6.307198 4.489029 -45.492125 -20.081612 -1.250593 -4.424830 -34.354560 3.833166 0.000000 0.000000 0.000000 25.781317 -8.386393 -9.793598 59.416458 -2.246028 -9.622436 8.012504 21.841070 2.142237 0.000000 0.000000 0.000000 
-0.048096 0.930353 0.450572 1.235780 -14.229003 -3.221892 -1.915327 2.593531 17.831046 0.448159 -0.125785 2.385041 3.926954 9.724814 9.872718 0.000000 0.000000 0.000000 -0.652066 2.539310 -21.487775 3.416874 -0.174236 3.990869 -6.774269 -20.827353 29.329640 0.000000 0.000000 0.000000 5.033781 -0.881173 13.275324 -5.384945 1.701697 -28.151235 -5.183609 -1.046166 33.761813 11.841025 -6.504794 -30.916618 0.000000 0.000000 0.000000 -16.557523 -5.916839 4.826261 -45.654554 -20.039167 -1.355002 -4.546478 -34.264371 3.943034 0.000000 0.000000 0.000000 25.980402 -9.179642 -11.098272 59.348823 -3.469651 -10.087049 6.101888 20.483210 1.592188 0.000000 0.000000 0.000000 
-0.071254 0.932910 0.497882 0.529376 -15.888622 -2.429293 -0.526512 2.413075 17.569407 0.062718 -0.114562 7.617379 3.305162 8.899298 14.198553 0.000000 0.000000 0.000000 1.237156 2.839770 -21.316158 4.303483 -0.128705 8.432405 -7.076843 -21.244108 26.424836 0.000000 0.000000 0.000000 5.695807 -0.842198 11.456120 -4.823098 1.547095 -27.925706 -5.584952 -1.850911 33.798251 12.470137 -7.332301 -30.082317 0.000000 0.000000 0.000000 -18.205775 -3.691236 4.320470 -46.498529 -18.207264 -2.222472 -5.638206 -33.757492 4.352562 0.000000 0.000000 0.000000 26.420319 -9.069234 -11.929217 59.114557 -4.472840 -10.384701 4.433170 19.811925 1.191603 0.000000 0.000000 0.000000 
